<?xml version="1.0" standalone="no"?><!DOCTYPE svg PUBLIC "-//W3C//DTD SVG 1.1//EN" "http://www.w3.org/Graphics/SVG/1.1/DTD/svg11.dtd"><svg t="1692981319066" class="icon" viewBox="0 0 1024 1024" version="1.1" xmlns="http://www.w3.org/2000/svg" p-id="23510" xmlns:xlink="http://www.w3.org/1999/xlink" width="200" height="200"><path d="M862 902c0 16.569-13.431 30-30 30H192c-16.569 0-30-13.431-30-30V122c0-16.569 13.431-30 30-30h476l194 194v616z" fill="#7DB4FF" p-id="23511"></path><path d="M862 286H698c-16.569 0-30-13.431-30-30V92" fill="#FFFFFF" fill-opacity=".296" p-id="23512"></path><path d="M374.84 644.2c16 0 36.16-2.56 46.08-6.72V599.4c-12.48 4.8-25.28 6.4-39.04 6.4-31.68 0-44.8-11.2-44.8-51.2s13.12-51.52 43.84-51.52c14.4 0 27.2 2.24 38.4 6.4v-39.04c-10.56-3.52-27.52-5.44-44.48-5.44-53.76 0-85.44 19.52-85.44 89.6s31.68 89.6 85.44 89.6zM505.4 642.92c44.48 0 70.4-14.08 70.4-54.72 0-31.68-9.92-43.2-47.68-52.8-27.2-6.72-32-8.64-32-19.52 0-11.84 5.76-16 27.2-16 15.36 0 34.56 3.84 43.84 6.4l1.92-35.52c-9.28-3.52-28.16-5.76-47.36-5.76-50.24 0-69.12 19.2-69.12 51.52 0 29.12 8.64 40.32 45.76 48.96 27.84 6.72 33.28 10.24 33.28 24s-8.64 17.28-28.8 17.28c-15.68 0-35.52-2.88-52.16-8v38.72c15.36 3.52 34.56 5.44 54.72 5.44zM662.2 642.92c44.48 0 70.4-14.08 70.4-54.72 0-31.68-9.92-43.2-47.68-52.8-27.2-6.72-32-8.64-32-19.52 0-11.84 5.76-16 27.2-16 15.36 0 34.56 3.84 43.84 6.4l1.92-35.52c-9.28-3.52-28.16-5.76-47.36-5.76-50.24 0-69.12 19.2-69.12 51.52 0 29.12 8.64 40.32 45.76 48.96 27.84 6.72 33.28 10.24 33.28 24s-8.64 17.28-28.8 17.28c-15.68 0-35.52-2.88-52.16-8v38.72c15.36 3.52 34.56 5.44 54.72 5.44z" fill="#FFFFFF" p-id="23513"></path></svg>